<!-- <?xml version="1.0" encoding="UTF-8"?>
<svg version="1.1" xmlns="http://www.w3.org/2000/svg" width="2400" height="807"> -->
<path d="M0 0 C8.37403274 -0.0097624 16.74785625 -0.02725844 25.12180424 -0.06744003 C63.1846298 -0.24599669 100.89849431 -0.02065863 138.79920292 4.03357697 C141.06200682 4.27470809 143.32548543 4.50719711 145.58957767 4.73587418 C153.74426461 5.56305553 161.87921568 6.51198099 170.01096439 7.53924942 C171.19053715 7.68509476 172.3701099 7.83094009 173.58542728 7.98120499 C255.27231417 18.08878947 337.81929211 31.51453648 416.19846439 57.28924942 C417.1157935 57.59040665 418.0331226 57.89156387 418.97824955 58.20184708 C440.42959961 65.31715975 461.15719748 73.8481698 481.19846439 84.28924942 C511.77620365 100.08964257 543.22863047 110.35796299 577.57346439 114.03924942 C578.645481 114.15494278 579.7174976 114.27063614 580.82199955 114.38983536 C601.46802471 116.37741174 622.28773046 116.44442488 643.01096439 116.42206192 C645.28806411 116.42273918 647.56516375 116.42371267 649.84226322 116.42496109 C654.56810044 116.42641827 659.2939185 116.42434837 664.01975346 116.41962051 C669.99588898 116.4139245 675.97197955 116.41721429 681.94811344 116.42319298 C686.63633388 116.42685277 691.32454414 116.4256355 696.01276493 116.42306519 C698.21298065 116.42241079 700.41319737 116.42317043 702.6134119 116.42554474 C723.34492268 116.44302201 744.19234657 116.26578521 764.82346439 114.03924942 C766.62291508 113.84637344 766.62291508 113.84637344 768.4587183 113.64960098 C802.9869055 109.69595691 834.96860133 98.50677239 865.60184574 82.3303566 C880.42010804 74.50561868 895.35724822 67.84264181 911.19846439 62.28924942 C911.87119389 62.05310928 912.54392338 61.81696915 913.23703861 61.57367325 C1006.43804998 29.01922771 1107.03834781 13.48455241 1227.07737064 2.01581192 C1227.78442646 1.95573959 1228.49148228 1.89566727 1229.21996403 1.83377457 C1231.54546599 1.6423968 1233.87173225 1.46511361 1236.19846439 1.28924942 C1237.80803579 1.16562829 1237.80803579 1.16562829 1239.45012379 1.03950977 C1248.15199518 0.41055609 1256.7932874 0.14074225 1265.52146244 0.14398575 C1266.88660456 0.14103067 1268.25174586 0.13767948 1269.61688614 0.13397121 C1273.29588261 0.12534572 1276.97485695 0.12301214 1280.65386248 0.12223244 C1283.7781805 0.1209431 1286.90249077 0.11635446 1290.02680564 0.11191428 C1300.11018093 0.09797046 1310.19353547 0.09769915 1320.27691793 0.1010251 C1322.88764708 0.10174989 1325.49837587 0.10200081 1328.10910511 0.10211182 C1380.39785733 0.10550617 1432.6480291 0.34442753 1484.90915775 2.20840073 C1488.04539074 2.3191593 1491.18176812 2.425512 1494.31814766 2.53202629 C1571.70748894 5.16550439 1648.99833122 9.57543658 1856.69846439 32.22674942 C1857.78310474 32.37927673 1857.78310474 32.37927673 1858.88965702 32.53488541 C1870.02136508 34.11215011 1870.02136508 34.11215011 1871.19846439 35.28924942 C1871.29932117 36.68161459 1871.3306766 38.07910606 1871.33333683 39.47511673 C1871.33685705 40.81840687 1871.33685705 40.81840687 1871.34044838 42.18883419 C1871.33605216 43.1743467 1871.33165594 44.15985922 1871.3271265 45.17523575 C1871.32434413 46.20426167 1871.32156176 47.2332876 1871.31869507 48.29349613 C1871.24245001 60.57935019 1870.6980446 72.84184213 1870.13987064 85.11346817 C1870.02984029 87.60448677 1869.92014117 90.09552001 1869.81075382 92.58656693 C1869.58279529 97.75234126 1869.35132952 102.91794221 1869.11716557 108.08343887 C1868.87726537 113.37948209 1868.64137239 118.67568291 1868.41013432 123.97211075 C1868.12870315 130.41783638 1867.84327901 136.86337022 1867.55425167 143.30875969 C1867.44505359 145.75318469 1867.33701931 148.19766196 1867.23017406 150.64219093 C1867.08111556 154.03735259 1866.92677898 157.43223337 1866.77097416 160.82709122 C1866.70623653 162.33626869 1866.70623653 162.33626869 1866.64019108 163.8759346 C1866.59674564 164.79899399 1866.55330021 165.72205338 1866.50853825 166.67308426 C1866.45461336 167.87269555 1866.45461336 167.87269555 1866.39959908 169.0965414 C1866.19533792 171.32333328 1866.00290681 173.19751818 1865.19846439 175.28924942 C1862.4687662 176.69472798 1859.85493587 177.85650177 1857.01096439 178.97674942 C1830.89168701 189.9355066 1811.29589269 208.84031649 1800.07599735 234.89818192 C1792.03927118 254.65383829 1789.0619636 276.08370126 1785.44937992 296.98663712 C1783.94819794 305.66577644 1782.40169204 314.33692582 1780.85471439 323.00799942 C1780.69988464 323.87672935 1780.54505489 324.74545929 1780.38553333 325.64051437 C1772.95986371 367.25317145 1764.19768911 408.55056201 1753.88797855 449.54614639 C1753.22585204 452.18029281 1752.56799034 454.81547235 1751.91086674 457.45087051 C1732.69598548 534.26078743 1707.27287497 620.32336518 1656.19846439 682.28924942 C1655.77001225 682.81244766 1655.3415601 683.3356459 1654.90012455 683.87469864 C1645.77659145 694.98204266 1636.37073978 706.19208986 1625.19846439 715.28924942 C1624.04836992 716.25106481 1622.89867005 717.21335212 1621.74924564 718.17596817 C1612.2471488 726.07392325 1602.39780199 733.32177065 1592.19846439 740.28924942 C1591.56053959 740.7286586 1590.92261478 741.16806778 1590.26535892 741.62079239 C1526.60894593 785.38975534 1450.64864323 807.2660411 1373.55783939 807.49237442 C1372.07794002 807.49935362 1370.59804094 807.50639458 1369.11814213 807.51349258 C1364.3949126 807.53283172 1359.67172918 807.53767165 1354.94846439 807.53924942 C1354.14340961 807.53983856 1353.33835484 807.5404277 1352.50890446 807.5410347 C1327.3809604 807.55401651 1302.4498434 807.06493779 1277.43100834 804.5138588 C1275.18865021 804.28826205 1272.94539934 804.07590381 1270.70139408 803.86737442 C1185.30011771 795.87927643 1098.75834806 776.13799684 952.86252689 687.76581192 C950.68685502 685.74326652 948.47681966 683.81756678 946.19846439 681.91424942 C936.83606352 673.77810895 928.92883459 663.93332689 921.19846439 654.28924942 C920.19210007 653.06149845 919.18418719 651.83501576 918.17502689 650.60956192 C910.57585342 641.36460565 903.27723419 631.9378326 896.19846439 622.28924942 C895.393606 621.19411026 895.393606 621.19411026 894.57248783 620.07684708 C887.61581038 610.58954033 880.84649419 601.00611288 874.41672611 591.15350723 C873.19587964 589.28529408 871.96519534 587.42384067 870.73362064 585.56268692 C857.04250067 564.76095857 844.37134958 543.41114492 832.80979252 521.35614395 C831.26087682 518.40804107 829.69326226 515.47069185 828.12033939 512.53534317 C809.8039907 478.17393264 794.67341539 442.15966015 782.19846439 405.28924942 C781.62902103 403.61765762 781.62902103 403.61765762 781.04807377 401.9122963 C773.47335262 379.52364008 767.07194134 356.75417918 762.06565189 333.65253067 C761.89157307 332.85165024 761.71749424 332.05076981 761.5381403 331.22562027 C760.70663004 327.38137368 759.89386801 323.53458066 759.11228275 319.67987442 C755.37178163 301.67230989 748.42325487 285.23715323 736.19846439 271.28924942 C735.59389408 270.58928848 734.98932377 269.88932755 734.36643314 269.16815567 C720.74718458 254.45936722 698.85869516 246.30872638 679.05002689 245.16522598 C662.20848913 244.58914298 646.65577747 246.19090992 631.19846439 253.28924942 C630.11951908 253.7816713 629.04057377 254.27409317 627.92893314 254.78143692 C608.20833988 264.55985683 594.93998331 282.50215484 587.75315189 302.98065567 C584.89595796 311.57444892 583.02490055 320.37830951 581.12091923 329.22180557 C569.73503462 381.81437268 552.60202334 432.73424356 529.57102299 481.38837051 C528.16149424 484.36738519 526.76787338 487.35354903 525.37424564 490.34003067 C513.40823089 515.80533803 499.83635663 540.28106657 485.19846439 564.28924942 C484.67188236 565.15308243 484.14530033 566.01691544 483.60276127 566.9069252 C461.20527779 603.4319386 435.88101447 639.37718207 406.56955814 670.73065567 C404.58541588 672.8716988 402.69534257 675.05123371 400.82346439 677.28924942 C391.86457689 687.56749803 381.05193183 696.11719419 370.19846439 704.28924942 C369.54845463 704.78505508 368.89844486 705.28086075 368.22873783 705.79169083 C331.06030721 734.02865621 288.19156935 753.38072704 244.19846439 768.28924942 C242.69146976 768.80648575 242.69146976 768.80648575 241.1540308 769.3341713 C180.20628594 790.1332354 115.99718975 800.38496075 51.97971439 805.56268692 C50.86838139 805.65278786 50.86838139 805.65278786 49.73459721 805.74470901 C36.13419407 806.80060832 22.58962774 807.45582615 8.94846439 807.49237442 C8.21089909 807.4952018 7.47333378 807.49802917 6.71341801 807.50094223 C2.79794835 807.51577671 -1.11748606 807.52510089 -5.03298092 807.5294838 C-8.18349178 807.53383066 -11.33372294 807.54759739 -14.48415279 807.57049942 C-42.57800098 807.77018581 -70.39303179 806.44733919 -98.11403561 801.53924942 C-98.84882137 801.41263931 -99.58360714 801.28602921 -100.34065914 801.15558243 C-158.9304652 791.02340519 -213.23952715 768.05094553 -260.80153561 732.28924942 C-261.72168453 731.59871475 -261.72168453 731.59871475 -262.66042233 730.89422989 C-266.40926217 728.06987535 -270.11576898 725.19571167 -273.80153561 722.28924942 C-274.70903561 721.57639786 -275.61653561 720.8635463 -276.55153561 720.12909317 C-287.03304575 711.7347442 -297.31430394 702.73100954 -305.80153561 692.28924942 C-306.76173927 691.15191072 -307.7227614 690.01526279 -308.68434811 688.87909317 C-316.83059577 679.16007335 -324.02369709 669.00164919 -330.80153561 658.28924942 C-331.19260494 657.67291641 -331.58367428 657.0565834 -331.9865942 656.42157364 C-371.70099137 593.28810929 -393.84560705 520.13068277 -411.80153561 448.28924942 C-412.0273431 447.38966507 -412.2531506 446.49008072 -412.48580074 445.56323624 C-425.29800663 394.48189995 -435.23405492 342.78205127 -444.26583004 290.91194534 C-444.88046568 287.3836173 -445.50042617 283.85623039 -446.12001705 280.32876968 C-446.53129959 277.96790904 -446.93210355 275.60546162 -447.33180904 273.24261856 C-448.64622155 265.62824281 -450.24596411 258.16357615 -452.29762936 250.71112442 C-452.49568172 249.98989899 -452.69373409 249.26867355 -452.89778805 248.5255928 C-460.62808189 221.44619991 -477.35687359 199.27932313 -501.80153561 185.28924942 C-511.01153799 180.25611793 -511.01153799 180.25611793 -520.70387936 176.31659317 C-522.80153561 175.28924942 -522.80153561 175.28924942 -523.41325951 173.51355076 C-523.81479534 171.21328891 -524.00674867 169.00581382 -524.11160946 166.67308426 C-524.15505489 165.75002487 -524.19850033 164.82696548 -524.24326229 163.8759346 C-524.28642071 162.86981628 -524.32957912 161.86369797 -524.37404537 160.82709122 C-524.42295925 159.76129837 -524.47187313 158.69550552 -524.52226925 157.59741592 C-524.68336141 154.0612755 -524.83837185 150.52489928 -524.99294186 146.98846817 C-525.10340219 144.5157872 -525.21407751 142.04311582 -525.32495785 139.57045364 C-525.58685891 133.70491614 -525.84437147 127.83919628 -526.10046762 121.9734028 C-526.36013401 116.03903678 -526.62859096 110.10508288 -526.89759064 104.171134 C-527.12860005 99.0516629 -527.35474477 93.93198501 -527.57956409 88.81223869 C-527.68684811 86.38339567 -527.79565201 83.9546192 -527.90612125 81.52591896 C-528.45492712 69.40850201 -528.89739639 57.30639652 -528.93019772 45.17523575 C-528.93459394 44.18972323 -528.93899015 43.20421072 -528.94351959 42.18883419 C-528.94117278 41.29330743 -528.93882597 40.39778067 -528.93640804 39.47511673 C-528.93490718 38.68750867 -528.93340631 37.89990061 -528.93185997 37.08842564 C-528.80153561 35.28924942 -528.80153561 35.28924942 -527.80153561 34.28924942 C-526.13329853 33.97132186 -524.45382973 33.71213938 -522.77199459 33.47650528 C-521.68016872 33.32190842 -520.58834286 33.16731155 -519.46343136 33.00802994 C-518.2537167 32.8417308 -517.04400204 32.67543167 -515.79762936 32.50409317 C-514.53119595 32.32748154 -513.26476254 32.1508699 -511.95995235 31.9689064 C-507.7207776 31.37982795 -503.48004117 30.80247743 -499.23903561 30.22674942 C-498.1420365 30.07743784 -498.1420365 30.07743784 -497.02287579 29.92510986 C-421.50600783 19.654506 -345.72019927 12.70872683 -140.11403561 2.16424942 C-138.87600185 2.12554733 -137.6379681 2.08684525 -136.36241817 2.04697037 C-127.93394939 1.78785994 -119.50487875 1.56029104 -111.07514095 1.34754944 C-108.70942838 1.2868876 -106.34380117 1.22344412 -103.97817135 1.15964127 C-69.32234879 0.23572844 -34.66624534 0.03987982 0 0 Z M-120.92653561 75.03924942 C-121.72965176 75.1216185 -122.53276791 75.20398758 -123.36022091 75.28885269 C-180.25508053 81.1833248 -240.8488852 94.86669162 -287.80153561 129.28924942 C-288.75415279 129.97116348 -289.70676998 130.65307755 -290.68825436 131.35565567 C-311.52295139 146.5799637 -328.59710232 164.05149146 -341.80153561 186.28924942 C-342.14813229 186.8725502 -342.49472897 187.45585098 -342.85182858 188.05682755 C-385.50606326 261.06388776 -364.65826544 367.00555927 -341.82497311 471.03046036 C-334.6967859 497.23234363 -325.32961002 522.71187015 -313.80153561 547.28924942 C-313.33521725 548.28376114 -312.86889889 549.27827286 -312.38844967 550.3029213 C-301.55164309 573.16657498 -288.51355296 594.71877501 -273.80153561 615.28924942 C-273.24111568 616.07493301 -272.68069576 616.86061661 -272.10329342 617.6701088 C-261.76783121 632.0919551 -250.82157211 646.01627992 -238.81325436 659.09003067 C-236.74551687 661.35048933 -234.74446906 663.66099745 -232.73903561 665.97674942 C-229.02936975 670.13563263 -225.10646389 673.75700057 -220.80153561 677.28924942 C-220.28204342 677.72108536 -219.76255123 678.1529213 -219.22731686 678.59784317 C-156.55759293 730.56442323 -73.86428035 746.49658184 5.69846439 746.53924942 C6.83785465 746.53992416 7.97724491 746.54059891 9.15116215 746.5412941 C96.67365194 746.45965995 186.43287482 728.87106714 337.71408939 647.67645645 C339.92350273 645.61167247 342.18663353 643.60877526 344.44846439 641.60174942 C351.0694459 635.65681626 357.35830333 629.44080533 363.14768314 622.67987442 C364.76015673 620.80019093 366.38842045 618.93971569 368.03049564 617.08612442 C410.07153412 569.45739416 440.79428769 512.6281504 460.19846439 452.28924942 C460.55924076 451.17227676 460.92001713 450.05530411 461.29172611 448.9044838 C486.31777168 370.49184862 498.11555319 265.69270596 459.37082767 190.05755997 C448.68603845 169.95998024 434.23412628 152.19383792 416.19846439 138.28924942 C415.29612064 137.53643692 414.39377689 136.78362442 413.46408939 136.00799942 C364.52309671 96.13015353 295.62286332 82.1924537 234.38596439 75.03924942 C233.10358891 74.88810684 231.82121342 74.73696426 230.49997807 74.58124161 C226.95979671 74.19312051 223.42081066 73.85019644 219.87407303 73.53049469 C218.09442252 73.37003316 216.31513538 73.20548765 214.53624535 73.0368042 C188.05477005 70.61175836 161.49130612 70.99419147 134.92577267 71.02059841 C130.87928246 71.02420122 126.83280023 71.02346596 122.78630924 71.02161789 C121.76810303 71.02115819 121.76810303 71.02115819 120.72932699 71.0206892 C119.3488208 71.02004953 117.96831461 71.01940109 116.58780843 71.01874402 C103.73424681 71.01308253 90.88071401 71.01953035 78.02715713 71.03034475 C67.09433624 71.03926006 56.16155793 71.03773668 45.22873783 71.02850723 C32.42313679 71.01770129 19.6175609 71.01364833 6.81195593 71.01973176 C5.43501918 71.0203686 4.05808243 71.02099735 2.68114567 71.02161789 C2.00431479 71.02192644 1.32748392 71.02223499 0.63014302 71.02255289 C-4.04716755 71.02425047 -8.7244612 71.02132673 -13.40177059 71.01665878 C-49.32001931 70.98567166 -85.16708303 71.27688048 -120.92653561 75.03924942 Z M947.19846439 123.28924942 C946.20330814 123.91057755 945.20815189 124.53190567 944.18283939 125.17206192 C915.70866229 143.58337539 893.26637491 167.28880998 879.19846439 198.28924942 C878.73826908 199.2972963 878.27807377 200.30534317 877.80393314 201.34393692 C867.29512359 226.49835724 863.78846684 255.3723754 861.19846439 282.28924942 C861.12498783 283.05092422 861.05151127 283.81259903 860.97580814 284.59735489 C853.27402759 369.82902743 876.67523389 457.43315399 967.47678471 608.82489395 C979.64788534 623.36760088 992.41817761 637.95731485 1006.86252689 650.28924942 C1008.68966302 651.85362015 1010.49050988 653.43744385 1012.28440189 655.03924942 C1073.32413192 709.1070143 1169.08306752 729.88639508 1371.38596439 745.78534317 C1440.86015363 741.18937503 1513.64478202 722.54554758 1565.96018314 674.34003067 C1568.06143058 672.41480396 1570.21165745 670.56846639 1572.38596439 668.72674942 C1576.39440818 665.22035724 1579.76954825 661.35364037 1583.19846439 657.28924942 C1584.07971177 656.28006806 1584.96265602 655.27236703 1585.84690189 654.26581192 C1593.72614924 645.25699906 1601.0620613 635.89456497 1608.19846439 626.28924942 C1608.74679935 625.55126114 1609.29513432 624.81327286 1609.86008549 624.0529213 C1665.41060611 548.94143907 1692.43954507 462.07943239 1706.19846439 328.28924942 C1706.30511417 327.10477219 1706.30511417 327.10477219 1706.4139185 325.89636612 C1708.61647757 301.3377637 1709.46696578 276.79022225 1706.19846439 252.28924942 C1706.10194584 251.56125137 1706.00542728 250.83325333 1705.90598392 250.08319473 C1699.67212692 205.4328101 1676.91006785 164.93335062 1641.19846439 137.28924942 C1640.57069096 136.8015004 1639.94291752 136.31375137 1639.29612064 135.81122208 C1627.29219414 126.58075556 1614.67320155 119.1622536 1601.19846439 112.28924942 C1600.3494556 111.84984024 1599.50044682 111.41043106 1598.62571049 110.95770645 C1583.68166262 103.2777628 1568.13806027 97.5499551 1552.19846439 92.28924942 C1551.17881596 91.95264297 1550.15916752 91.61603653 1549.10862064 91.26922989 C1515.83579743 80.49312131 1480.87605877 76.28780002 1446.13596439 73.60174942 C1445.34923344 73.540811 1444.56250248 73.47987259 1443.75193119 73.41708755 C1422.53515547 71.80091818 1401.37115279 71.13774812 1380.09519291 71.12811661 C1377.66264619 71.1234733 1375.23010018 71.11844669 1372.79755497 71.11307144 C1366.25306068 71.10008783 1359.70857323 71.09349039 1353.16406846 71.08906078 C1349.05195095 71.08626849 1344.93983567 71.08202624 1340.82771969 71.07755661 C1329.36879374 71.06538553 1317.90986954 71.05508257 1306.45093727 71.05168152 C1305.72171521 71.05146195 1304.99249314 71.05124239 1304.24117344 71.05101617 C1303.51053272 71.05079789 1302.77989199 71.05057961 1302.02711064 71.05035472 C1300.54736332 71.04991131 1299.067616 71.04946474 1297.58786869 71.04901505 C1296.85391429 71.04879362 1296.1199599 71.04857219 1295.36376446 71.04834405 C1283.51570569 71.04441002 1271.66770893 71.02698905 1259.81967402 71.00365552 C1247.5592823 70.97971143 1235.29892138 70.96746932 1223.03850597 70.9663136 C1216.19365896 70.96540952 1209.34889361 70.95989984 1202.50406933 70.94149399 C1117.05280604 70.72797663 1021.82246876 76.6975783 947.19846439 123.28924942 Z M-467.80153561 103.28924942 C-467.80153561 111.20924942 -467.80153561 119.12924942 -467.80153561 127.28924942 C-433.15153561 127.28924942 -398.50153561 127.28924942 -362.80153561 127.28924942 C-362.80153561 119.36924942 -362.80153561 111.44924942 -362.80153561 103.28924942 C-397.45153561 103.28924942 -432.10153561 103.28924942 -467.80153561 103.28924942 Z M1705.19846439 103.28924942 C1705.19846439 111.20924942 1705.19846439 119.12924942 1705.19846439 127.28924942 C1739.84846439 127.28924942 1774.49846439 127.28924942 1810.19846439 127.28924942 C1810.19846439 119.36924942 1810.19846439 111.44924942 1810.19846439 103.28924942 C1775.54846439 103.28924942 1740.89846439 103.28924942 1705.19846439 103.28924942 Z " fill="#000000" transform="translate(528.8015356063843,-0.2892494201660156)"/>
</svg>
